<mxfile host="app.diagrams.net" modified="2024-04-29T07:00:36.516Z" agent="Mozilla/5.0 (X11; Linux x86_64) AppleWebKit/537.36 (KHTML, like Gecko) Chrome/122.0.0.0 Safari/537.36" version="24.2.5" etag="8cX8IR32YXYlwzOzyYCg" type="github">
  <diagram name="第 1 页" id="g3Hd0jUkaO_XOJKfGeiR">
    <mxGraphModel>
      <root>
        <mxCell id="0" />
        <mxCell id="1" parent="0" />
      </root>
    </mxGraphModel>
  </diagram>
</mxfile>
